<svg xmlns="http://www.w3.org/2000/svg" viewBox="0 0 1600 1100" role="img" aria-labelledby="title desc">
  <title id="title">Banh mi plate illustration</title>
  <desc id="desc">A breakfast board with banh mi, eggs, herbs, cucumber, and pickles.</desc>
  <defs>
    <linearGradient id="bg" x1="0" x2="1" y1="0" y2="1">
      <stop offset="0%" stop-color="#f5deae"/>
      <stop offset="100%" stop-color="#d7a56f"/>
    </linearGradient>
  </defs>
  <rect width="1600" height="1100" fill="url(#bg)"/>
  <rect x="310" y="250" width="980" height="620" rx="52" fill="#f9f0df"/>
  <ellipse cx="660" cy="515" rx="180" ry="68" fill="#d08a3f" transform="rotate(-12 660 515)"/>
  <ellipse cx="665" cy="510" rx="152" ry="44" fill="#f2d48e" transform="rotate(-12 665 510)"/>
  <ellipse cx="970" cy="480" rx="92" ry="78" fill="#fff8ef"/>
  <circle cx="970" cy="480" r="48" fill="#efb551"/>
  <ellipse cx="955" cy="660" rx="130" ry="58" fill="#6aa25c" opacity=".96"/>
  <g fill="#88ba6a">
    <ellipse cx="520" cy="665" rx="76" ry="26" transform="rotate(-18 520 665)"/>
    <ellipse cx="615" cy="690" rx="82" ry="24" transform="rotate(10 615 690)"/>
  </g>
  <g fill="#d66f5a">
    <rect x="1088" y="610" width="100" height="24" rx="12" transform="rotate(36 1138 622)"/>
    <rect x="1124" y="655" width="100" height="24" rx="12" transform="rotate(40 1174 667)"/>
  </g>
  <g fill="#87af62">
    <rect x="1098" y="585" width="24" height="108" rx="12" transform="rotate(40 1110 639)"/>
    <rect x="1170" y="615" width="24" height="108" rx="12" transform="rotate(40 1182 669)"/>
  </g>
  <g fill="#9ac2b2">
    <ellipse cx="1120" cy="470" rx="70" ry="26" transform="rotate(-18 1120 470)"/>
    <ellipse cx="1188" cy="445" rx="58" ry="20" transform="rotate(-16 1188 445)"/>
  </g>
</svg>
