<svg xmlns="http://www.w3.org/2000/svg" viewBox="0 0 1600 1100" role="img" aria-labelledby="title desc">
  <title id="title">Ginger fish sauce illustration</title>
  <desc id="desc">A dipping bowl of fish sauce with ginger, lime, and sliced chili.</desc>
  <defs>
    <linearGradient id="bg" x1="0" x2="1" y1="0" y2="1">
      <stop offset="0%" stop-color="#f1cf9f"/>
      <stop offset="100%" stop-color="#d79554"/>
    </linearGradient>
  </defs>
  <rect width="1600" height="1100" fill="url(#bg)"/>
  <ellipse cx="800" cy="930" rx="360" ry="88" fill="#84563d" opacity=".16"/>
  <ellipse cx="800" cy="630" rx="310" ry="180" fill="#f8f0e1"/>
  <ellipse cx="800" cy="610" rx="244" ry="128" fill="#dba34d"/>
  <g fill="#d13f2f">
    <ellipse cx="720" cy="595" rx="52" ry="14" transform="rotate(-24 720 595)"/>
    <ellipse cx="875" cy="565" rx="56" ry="14" transform="rotate(18 875 565)"/>
    <ellipse cx="826" cy="648" rx="58" ry="14" transform="rotate(-10 826 648)"/>
  </g>
  <g fill="#f0e2bf">
    <rect x="690" y="510" width="18" height="98" rx="9" transform="rotate(-16 699 559)"/>
    <rect x="740" y="560" width="18" height="92" rx="9" transform="rotate(10 749 606)"/>
    <rect x="907" y="600" width="18" height="88" rx="9" transform="rotate(-20 916 644)"/>
  </g>
  <g fill="#f5d66f">
    <circle cx="1108" cy="458" r="62"/>
    <circle cx="1108" cy="458" r="42" fill="#f6f0cb"/>
  </g>
  <g fill="#7faf60">
    <ellipse cx="1014" cy="730" rx="82" ry="26" transform="rotate(-14 1014 730)"/>
    <ellipse cx="1080" cy="770" rx="86" ry="24" transform="rotate(8 1080 770)"/>
  </g>
  <path d="M505 610c12 141 54 224 98 273 57 63 127 94 201 101 89 9 174-14 237-58 81-57 135-145 155-318" fill="none" stroke="#f7efde" stroke-width="18"/>
</svg>
