<svg xmlns="http://www.w3.org/2000/svg" viewBox="0 0 1600 1100" role="img" aria-labelledby="title desc">
  <title id="title">Pho ga illustration</title>
  <desc id="desc">A stylized bowl of Vietnamese chicken pho with broth, noodles, herbs, and lime.</desc>
  <defs>
    <linearGradient id="bg" x1="0" x2="1" y1="0" y2="1">
      <stop offset="0%" stop-color="#f2d7ab"/>
      <stop offset="100%" stop-color="#d89b6a"/>
    </linearGradient>
  </defs>
  <rect width="1600" height="1100" fill="url(#bg)"/>
  <ellipse cx="800" cy="920" rx="470" ry="90" fill="#8c5b3d" opacity=".18"/>
  <ellipse cx="800" cy="600" rx="430" ry="220" fill="#fdf6eb"/>
  <ellipse cx="800" cy="590" rx="350" ry="165" fill="#c98a43"/>
  <path d="M520 565c62-48 126-76 189-84 126-15 243 28 372 78-46 42-110 81-204 94-140 20-258-15-357-88Z" fill="#f5ead7"/>
  <g fill="#6a9c55">
    <ellipse cx="655" cy="515" rx="70" ry="28" transform="rotate(-12 655 515)"/>
    <ellipse cx="905" cy="523" rx="68" ry="26" transform="rotate(14 905 523)"/>
    <ellipse cx="772" cy="530" rx="85" ry="30" transform="rotate(-4 772 530)"/>
  </g>
  <g stroke="#f7f0e4" stroke-width="10" stroke-linecap="round" opacity=".92">
    <path d="M620 585c45 18 77 27 124 30"/>
    <path d="M730 598c60 10 112 7 174-13"/>
    <path d="M630 620c75 20 149 25 246 15"/>
  </g>
  <g fill="#f4d27e">
    <circle cx="1075" cy="478" r="48"/>
    <circle cx="1122" cy="530" r="34"/>
  </g>
  <g stroke="#7fa55e" stroke-width="8" stroke-linecap="round">
    <path d="M1086 443c-28-32-62-58-99-74"/>
    <path d="M1151 497c26-12 56-17 85-13"/>
  </g>
  <path d="M520 560c8 136 68 251 102 286 37 38 111 68 178 75 73 8 171-8 231-41 67-36 119-87 155-160 28-57 49-115 54-160" fill="none" stroke="#f7f0e3" stroke-width="22"/>
</svg>
