<svg xmlns="http://www.w3.org/2000/svg" viewBox="0 0 1600 1100" role="img" aria-labelledby="title desc">
  <title id="title">Thit kho illustration</title>
  <desc id="desc">A stylized clay bowl of caramelized pork and eggs in deep amber sauce.</desc>
  <defs>
    <linearGradient id="bg" x1="0" x2="1" y1="0" y2="1">
      <stop offset="0%" stop-color="#efc08e"/>
      <stop offset="100%" stop-color="#ae5833"/>
    </linearGradient>
  </defs>
  <rect width="1600" height="1100" fill="url(#bg)"/>
  <ellipse cx="805" cy="920" rx="430" ry="92" fill="#6d3821" opacity=".16"/>
  <ellipse cx="800" cy="610" rx="390" ry="215" fill="#6f3e2a"/>
  <ellipse cx="800" cy="585" rx="330" ry="152" fill="#8f471f"/>
  <g fill="#e6d2b1">
    <ellipse cx="678" cy="530" rx="88" ry="70"/>
    <ellipse cx="920" cy="542" rx="88" ry="70"/>
  </g>
  <g fill="#bc6a2c">
    <rect x="585" y="540" width="118" height="96" rx="28" transform="rotate(-10 644 588)"/>
    <rect x="726" y="596" width="136" height="100" rx="26" transform="rotate(8 794 646)"/>
    <rect x="873" y="502" width="132" height="98" rx="28" transform="rotate(-12 939 551)"/>
    <rect x="730" y="470" width="122" height="92" rx="26" transform="rotate(-4 791 516)"/>
  </g>
  <g fill="#f1b45f" opacity=".52">
    <ellipse cx="670" cy="562" rx="44" ry="16"/>
    <ellipse cx="944" cy="534" rx="46" ry="18"/>
    <ellipse cx="794" cy="620" rx="56" ry="18"/>
  </g>
  <path d="M480 583c8 158 61 249 122 303 68 60 163 86 271 86 112 0 211-33 278-101 57-57 93-140 110-288" fill="none" stroke="#82462c" stroke-width="22"/>
</svg>
